<svg id="Layer_1" data-name="Layer 1" xmlns="http://www.w3.org/2000/svg" width="460.7" height="239.1" viewBox="0 0 460.7 239.1">
  <defs>
    <style>
      .cls-1 {
        fill: #626469;
      }

      .cls-2 {
        fill: #75ca00;
      }

      .cls-3 {
        fill: #fff;
      }

      .cls-4 {
        fill: #a4d55f;
      }
    </style>
  </defs>
  <title>logo</title>
  <polygon class="cls-1" points="297.7 239.1 0 239.1 0 0 460.7 0 297.7 239.1"/>
  <g>
    <path class="cls-2" d="M141.3,189.7l0.2-.2h2a2,2,0,1,1,0,3.9h-1.3v2.1l-0.2.2h-0.6l-0.2-.2v-5.8Zm2.1,2.9a1.1,1.1,0,0,0,1.1-1.1,1.1,1.1,0,0,0-1.1-1.1h-1.2v2.2h1.2Z" transform="translate(-0.8 -0.5)"/>
    <path class="cls-2" d="M145.8,195.5l2.7-5.9h0.4l2.7,5.9a0.2,0.2,0,0,1-.2.2h-0.8l-0.5-1.2h-2.9l-0.5,1.2H146a0.2,0.2,0,0,1-.1-0.2m4-1.9-1.1-2.4h0l-1.1,2.4h2.2Z" transform="translate(-0.8 -0.5)"/>
    <path class="cls-2" d="M152.9,189.7l0.2-.2h2.4a1.9,1.9,0,0,1,1.9,1.9,1.9,1.9,0,0,1-1.3,1.8l1.2,2.2a0.2,0.2,0,0,1-.2.3h-0.8l-1.2-2.3h-1.3v2.2l-0.2.2h-0.6l-0.2-.2v-5.8Zm2.5,2.8a1.1,1.1,0,0,0,1.1-1.1,1.1,1.1,0,0,0-1.1-1h-1.6v2.1h1.6Z" transform="translate(-0.8 -0.5)"/>
    <path class="cls-2" d="M159.2,189.8a0.2,0.2,0,0,1,.2-0.2h0.5a0.2,0.2,0,0,1,.2.2v2.4l2.5-2.6h0.8a0.2,0.2,0,0,1,.1.3l-2.5,2.6,2.7,3a0.2,0.2,0,0,1-.2.3h-0.9l-2.6-2.9v2.7a0.2,0.2,0,0,1-.2.2h-0.5a0.2,0.2,0,0,1-.2-0.2v-5.7Z" transform="translate(-0.8 -0.5)"/>
    <path class="cls-2" d="M166.7,195.5l2.7-5.9h0.4l2.7,5.9a0.2,0.2,0,0,1-.2.2h-0.8l-0.5-1.2h-2.9l-0.5,1.2h-0.8a0.2,0.2,0,0,1-.1-0.2m4-1.9-1.1-2.4h0l-1.1,2.4h2.2Z" transform="translate(-0.8 -0.5)"/>
    <path class="cls-2" d="M173.8,189.6l0.2-.2h0.2l3.8,4.4h0v-4.2l0.2-.2h0.6l0.2,0.2v5.9l-0.2.2h-0.2l-3.8-4.5h0v4.3a0.2,0.2,0,0,1-.2.2H174l-0.2-.2v-5.9Z" transform="translate(-0.8 -0.5)"/>
    <path class="cls-2" d="M181.1,189.7l0.2-.2h2a3.1,3.1,0,1,1,0,6.1h-2l-0.2-.2v-5.8Zm2.1,5.1a2.2,2.2,0,0,0,0-4.5h-1.2v4.5h1.2Z" transform="translate(-0.8 -0.5)"/>
    <path class="cls-2" d="M190.4,189.7l0.2-.2h2.4a1.9,1.9,0,0,1,1.9,1.9,2,2,0,0,1-1.3,1.8l1.2,2.2a0.2,0.2,0,0,1-.2.3h-0.8l-1.2-2.3h-1.3v2.2l-0.2.2h-0.6l-0.2-.2v-5.8Zm2.5,2.8a1.1,1.1,0,0,0,1.1-1.1,1.1,1.1,0,0,0-1.1-1h-1.6v2.1h1.6Z" transform="translate(-0.8 -0.5)"/>
    <path class="cls-2" d="M196.6,189.7l0.2-.2h3.5l0.2,0.2v0.5l-0.2.2h-2.8v1.8h2.3l0.2,0.2v0.5l-0.2.2h-2.3v1.9h2.8l0.2,0.2v0.5l-0.2.2h-3.5l-0.2-.2v-5.8Z" transform="translate(-0.8 -0.5)"/>
    <path class="cls-2" d="M204.9,189.5a3,3,0,0,1,2.1.8,0.2,0.2,0,0,1,0,.2l-0.4.4h-0.2a2.4,2.4,0,0,0-1.5-.6,2.3,2.3,0,0,0,0,4.6,2.3,2.3,0,0,0,1.5-.6h0.2l0.4,0.4a0.2,0.2,0,0,1,0,.2,3,3,0,0,1-2.1.9,3.2,3.2,0,1,1,0-6.3" transform="translate(-0.8 -0.5)"/>
    <path class="cls-2" d="M208.8,189.7a0.2,0.2,0,0,1,.2-0.2h2.4a1.9,1.9,0,0,1,1.9,1.9,2,2,0,0,1-1.3,1.8l1.2,2.2a0.2,0.2,0,0,1-.1.3h-0.8l-1.2-2.3h-1.3v2.2l-0.2.2h-0.6a0.2,0.2,0,0,1-.2-0.2v-5.8Zm2.5,2.8a1.1,1.1,0,0,0,1.1-1.1,1.1,1.1,0,0,0-1.1-1h-1.6v2.1h1.6Z" transform="translate(-0.8 -0.5)"/>
    <path class="cls-2" d="M215,189.7l0.2-.2h3.5l0.2,0.2v0.5l-0.2.2H216v1.8h2.3l0.2,0.2v0.5l-0.2.2H216v1.9h2.8l0.2,0.2v0.5l-0.2.2h-3.5l-0.2-.2v-5.8Z" transform="translate(-0.8 -0.5)"/>
    <path class="cls-2" d="M219.8,195.5l2.7-5.9h0.4l2.7,5.9a0.2,0.2,0,0,1-.2.2h-0.8l-0.5-1.2h-2.9l-0.5,1.2H220a0.2,0.2,0,0,1-.2-0.2m4-1.9-1.1-2.4h0l-1.1,2.4h2.2Z" transform="translate(-0.8 -0.5)"/>
    <path class="cls-2" d="M227.4,190.4H226l-0.2-.2v-0.5l0.2-.2h3.8l0.2,0.2v0.5l-0.2.2h-1.4v5.2l-0.2.2h-0.6l-0.2-.2v-5.2Z" transform="translate(-0.8 -0.5)"/>
    <path class="cls-2" d="M231.3,189.7l0.2-.2h0.6l0.2,0.2v5.8l-0.2.2h-0.6l-0.2-.2v-5.8Z" transform="translate(-0.8 -0.5)"/>
    <path class="cls-2" d="M237.1,189.5a3.2,3.2,0,1,1-3.2,3.2,3.2,3.2,0,0,1,3.2-3.2m0,5.4a2.3,2.3,0,0,0,0-4.6,2.3,2.3,0,0,0,0,4.6" transform="translate(-0.8 -0.5)"/>
    <path class="cls-2" d="M241.9,189.6l0.2-.2h0.2l3.8,4.4h0v-4.2l0.2-.2h0.6l0.2,0.2v5.9l-0.2.2h-0.2l-3.8-4.5h0v4.3l-0.2.2h-0.6l-0.2-.2v-5.9Z" transform="translate(-0.8 -0.5)"/>
    <path class="cls-2" d="M251.5,189.7l0.2-.2h2a3.1,3.1,0,1,1,0,6.1h-2l-0.2-.2v-5.8Zm2.1,5.1a2.2,2.2,0,0,0,0-4.5h-1.2v4.5h1.2Z" transform="translate(-0.8 -0.5)"/>
    <rect class="cls-2" x="257.6" y="189.1" width="0.9" height="6.14" rx="0.2" ry="0.2"/>
    <path class="cls-2" d="M261.1,194.8l0.2-.4a0.2,0.2,0,0,1,.3-0.1,2.6,2.6,0,0,0,1.4.6,0.9,0.9,0,0,0,1-.8c0-.5-0.5-0.9-1.3-1.2a2,2,0,0,1-1.6-1.9,1.7,1.7,0,0,1,1.9-1.6,3,3,0,0,1,1.6.5,0.2,0.2,0,0,1,.1.3l-0.2.3a0.2,0.2,0,0,1-.3.1,2.7,2.7,0,0,0-1.2-.4,0.9,0.9,0,0,0-1,.8,1.3,1.3,0,0,0,1.1,1.1c1,0.4,1.9.9,1.9,2a1.8,1.8,0,0,1-2,1.7,2.8,2.8,0,0,1-1.9-.7,0.2,0.2,0,0,1-.1-0.3" transform="translate(-0.8 -0.5)"/>
    <path class="cls-2" d="M267.5,190.4h-1.4l-0.2-.2v-0.5a0.2,0.2,0,0,1,.2-0.2h3.8l0.2,0.2v0.5l-0.2.2h-1.4v5.2l-0.2.2h-0.6l-0.2-.2v-5.2Z" transform="translate(-0.8 -0.5)"/>
    <path class="cls-2" d="M271.4,189.7a0.2,0.2,0,0,1,.2-0.2H274a1.9,1.9,0,0,1,1.9,1.9,2,2,0,0,1-1.3,1.8l1.2,2.2a0.2,0.2,0,0,1-.2.3h-0.8l-1.2-2.3h-1.3v2.2l-0.2.2h-0.6a0.2,0.2,0,0,1-.2-0.2v-5.8Zm2.5,2.8a1.1,1.1,0,0,0,1.1-1.1,1.1,1.1,0,0,0-1.1-1h-1.6v2.1h1.6Z" transform="translate(-0.8 -0.5)"/>
    <rect class="cls-2" x="276.9" y="189.1" width="0.9" height="6.14" rx="0.2" ry="0.2"/>
    <path class="cls-2" d="M283.5,189.5a3,3,0,0,1,2.1.8,0.2,0.2,0,0,1,0,.2l-0.4.4H285a2.4,2.4,0,0,0-1.5-.6,2.3,2.3,0,0,0,0,4.6,2.3,2.3,0,0,0,1.5-.6h0.2l0.4,0.4a0.2,0.2,0,0,1,0,.2,3,3,0,0,1-2.1.9,3.2,3.2,0,1,1,0-6.3" transform="translate(-0.8 -0.5)"/>
    <path class="cls-2" d="M288.1,190.4h-1.4l-0.2-.2v-0.5l0.2-.2h3.8l0.2,0.2v0.5l-0.2.2H289v5.2l-0.2.2h-0.6l-0.2-.2v-5.2Z" transform="translate(-0.8 -0.5)"/>
    <path class="cls-3" d="M98.8,122.2a28.6,28.6,0,0,0-15.9-4.4H82.7a30.6,30.6,0,0,0-5.6.5H76.9a30.8,30.8,0,0,0-14,6.7,5.7,5.7,0,0,0,7.4,8.8,17.9,17.9,0,0,1,7.3-3.8c5.9-1.2,11.1-.6,15,1.9a12.4,12.4,0,0,1,6.2,10.7s3.1,26-18.7,26c-8,0-13.6-4.6-13.6-8.6s5.6-8.6,13.6-8.6a18.6,18.6,0,0,1,7.1,1.3,5.6,5.6,0,0,0,4.3-10.4A29.8,29.8,0,0,0,80,140.1c-13.7,0-24.8,8.9-24.8,19.9S66.3,180,80,180a28.2,28.2,0,0,0,17.2-5.5h0c1.6-1.4,1.6.2,1.6,0.2h0a5.8,5.8,0,0,0,11.5-.4V142.3h0a23.8,23.8,0,0,0-11.5-20.1" transform="translate(-0.8 -0.5)"/>
    <path class="cls-3" d="M249.8,120.4a5.8,5.8,0,1,0-9.1,7.1L255,145.7h0v0.2h0.1a3.8,3.8,0,0,1-.1,4.7l-14.3,18.2a5.8,5.8,0,1,0,9.1,7.1l13-16.6c0.3-.4,1.6-1.7,3,0.1L278.7,176a5.8,5.8,0,0,0,9.1-7.1Z" transform="translate(-0.8 -0.5)"/>
    <path class="cls-3" d="M271.5,139a5.8,5.8,0,0,0,8.1-1l8.2-10.4a5.8,5.8,0,0,0-9.1-7.1l-8.2,10.4a5.8,5.8,0,0,0,1,8.1" transform="translate(-0.8 -0.5)"/>
    <path class="cls-3" d="M235.8,156.2a5.8,5.8,0,0,0-7.8,2.3,19.5,19.5,0,0,1-32.9,2.2h-0.1s-14.2-18.7-21.5-28.1a36.2,36.2,0,0,0-4.2-5.2,30.8,30.8,0,0,0-18.7-8.9h-3.2a31,31,0,0,0-19.9,7.2,5.8,5.8,0,0,0,7.4,8.8,19.5,19.5,0,0,1,12.5-4.5h2.3l1.7,0.3h0a19.4,19.4,0,0,1,10.6,6.1,21.1,21.1,0,0,1,2,2.7,19.4,19.4,0,0,1,2.5,6.3h0c0.1,0.5.2,1.1,0.3,1.7v0.3a19.5,19.5,0,0,1-19.4,21.4h-2.1l-1.5-.2h-0.5l-1.3-.3-0.7-.2-1-.4-0.6-.2-1.3-.6-0.5-.3-1.3-.8h-0.2l-1.3-1H135l-1.3-1.2h0a19.4,19.4,0,0,1-5.7-13.7v-2.5a5.8,5.8,0,0,0-11.5,0v58.5a5.8,5.8,0,0,0,11.5,0V176.4c0-2.5,1.5-1.8,2.2-1.4h0.3l1.4,0.8h0.1a30.7,30.7,0,0,0,10,3.7H142l1.5,0.2h3.9a31.1,31.1,0,0,0,29.1-20.4l0.3-.8h0s0.6-2.5,2.4-.2l6.7,8.7a31,31,0,0,0,52.3-3.5,5.8,5.8,0,0,0-2.3-7.8" transform="translate(-0.8 -0.5)"/>
    <path class="cls-3" d="M222.5,139.1H200.9a5.8,5.8,0,0,0,0,11.5h32.2a5.8,5.8,0,0,0,5.7-6.8,31,31,0,0,0-50.5-18.4,5.8,5.8,0,0,0,7.4,8.8,19.5,19.5,0,0,1,25.4.3,20,20,0,0,1,2.1,2.1h0l0.4,0.6c0.5,0.7.8,1.8-1.1,1.8" transform="translate(-0.8 -0.5)"/>
    <path class="cls-2" d="M178.6,25.8a11.6,11.6,0,0,0-17.1.4L103,91.3c-4.6,5.1-2.1,7.6,3.5,5.4l103.2-39Z" transform="translate(-0.8 -0.5)"/>
    <path class="cls-4" d="M249.4,91.1L235.5,61.3c-3.3-7.2-9.4-9.1-16.9-6.6l-8.8,2.9,35.5,36.3c5.5,5.7,7.4,4.4,4.1-2.8" transform="translate(-0.8 -0.5)"/>
  </g>
</svg>
